<svg width="20.000000" height="20.000000" viewBox="0 0 20 20" fill="none" xmlns="http://www.w3.org/2000/svg" xmlns:xlink="http://www.w3.org/1999/xlink">
	<desc>
			Created with Pixso.
	</desc>
	<defs/>
	<g opacity="0.600000">
		<rect id="Icons General / cart" width="20.000000" height="20.000000" fill="#FFFFFF" fill-opacity="0"/>
		<path id="coolicon" d="M15.564 16.3392L10.8013 11.5759C8.68311 13.0821 5.76367 12.7136 4.08545 10.7283C2.40771 8.74294 2.53076 5.803 4.36914 3.96502C6.20654 2.12622 9.14697 2.00248 11.1328 3.68036C13.1182 5.35825 13.4868 8.27789 11.9805 10.3967L16.7432 15.16L15.5649 16.3383L15.564 16.3392ZM7.90381 4.16667C6.32373 4.16631 4.96045 5.27557 4.63916 6.82288C4.31836 8.37018 5.12793 9.93024 6.57812 10.5585C8.02783 11.1869 9.71973 10.7107 10.6294 9.41839C11.5386 8.12608 11.4155 6.37278 10.335 5.22002L10.8389 5.72002L10.2705 5.15335L10.2607 5.14335C9.63721 4.516 8.78857 4.16429 7.90381 4.16667Z" fill="#FFFFFF" fill-opacity="1.000000" fill-rule="nonzero"/>
	</g>
</svg>
