<svg width="24.000000" height="24.000000" viewBox="0 0 24 24" fill="none" xmlns="http://www.w3.org/2000/svg" xmlns:xlink="http://www.w3.org/1999/xlink">
	<desc>
			Created with Pixso.
	</desc>
	<defs>
		<clipPath id="clip5_24">
			<rect id="twitter" width="24.000000" height="24.000000" fill="white" fill-opacity="0"/>
		</clipPath>
	</defs>
	<g clip-path="url(#clip5_24)">
		<path id="Vector" d="M22.9185 6.01239C22.1489 6.35373 21.3215 6.58441 20.4536 6.68814C21.3396 6.15701 22.02 5.31598 22.3406 4.31378C21.5112 4.80563 20.5928 5.16278 19.6152 5.35519C18.8325 4.52112 17.717 4 16.4827 4C14.1125 4 12.1909 5.92148 12.1909 8.29156C12.1909 8.6279 12.229 8.95547 12.302 9.26959C8.73535 9.09061 5.573 7.38202 3.4563 4.78552C3.08691 5.41934 2.87524 6.15656 2.87524 6.94308C2.87524 8.43204 3.63281 9.74564 4.78442 10.5153C4.08105 10.4929 3.41919 10.2999 2.84058 9.97845C2.84033 9.9964 2.84033 10.0143 2.84033 10.0324C2.84033 12.1118 4.31958 13.8463 6.28271 14.2406C5.92261 14.3387 5.54346 14.3912 5.1521 14.3912C4.87573 14.3912 4.60669 14.3642 4.34473 14.3142C4.89087 16.0191 6.47583 17.26 8.35376 17.2945C6.88501 18.4457 5.03442 19.1318 3.02368 19.1318C2.67725 19.1318 2.33569 19.1114 2 19.0717C3.89917 20.2894 6.15503 21 8.57861 21C16.4727 21 20.7893 14.4605 20.7893 8.78918C20.7893 8.60315 20.7852 8.41806 20.7769 8.23395C21.6155 7.62885 22.343 6.87302 22.9185 6.01239Z" fill="#FFFFFF" fill-opacity="1.000000" fill-rule="nonzero"/>
	</g>
</svg>
